<svg width="126" height="117" viewBox="0 0 126 117" fill="none" xmlns="http://www.w3.org/2000/svg">
<g clip-path="url(#clip0_106_2896)">
<path d="M98.3018 71.017C98.3018 83.1117 98.3018 95.2088 98.3018 107.308C98.3018 109.793 97.5158 111.988 95.813 113.806C94.0467 115.698 91.8571 116.73 89.2566 116.739C71.1764 116.749 53.0974 116.745 35.0195 116.728C31.7412 116.728 29.2284 115.136 27.4345 112.428C26.4025 110.863 25.9983 109.095 25.9983 107.224C25.9983 83.0859 25.9983 58.9492 25.9983 34.8136C25.9983 31.0985 27.6237 28.2675 30.8142 26.3858C32.2245 25.5568 33.8017 25.2438 35.4391 25.2455C39.4931 25.2455 43.5453 25.2455 47.5992 25.2558C48.1943 25.2558 48.7585 25.0838 49.3433 25.0563C49.6133 25.0425 49.6047 24.8654 49.603 24.671C49.603 23.9142 49.603 23.1575 49.603 22.399C49.603 19.5834 51.8062 17.258 54.6218 17.2391C59.9697 17.1967 65.3176 17.1967 70.6656 17.2391C73.2799 17.2597 75.4918 19.5542 75.5537 22.1754C75.5726 22.9992 75.5846 23.8231 75.5846 24.6469C75.5846 24.9015 75.6345 25.0305 75.9286 25.0735C76.6566 25.1916 77.3927 25.2531 78.1302 25.2575C81.5942 25.2421 85.0582 25.273 88.5222 25.2421C90.8871 25.2214 93.0319 25.8251 94.8705 27.3352C96.6112 28.7368 97.7746 30.7304 98.1384 32.9354C98.2615 33.7665 98.311 34.6068 98.2863 35.4466C98.2978 47.3016 98.303 59.1585 98.3018 71.017ZM37.2537 70.9843V101.821C37.2358 102.24 37.2787 102.659 37.381 103.065C37.9829 105.112 39.4621 106.223 41.729 106.226C51.2782 106.239 60.8286 106.243 70.3801 106.24C70.724 106.24 70.7928 106.118 70.8118 105.815C70.9408 103.751 71.1042 101.698 71.2228 99.6371C71.3381 97.6109 71.8403 95.7482 73.2386 94.2003C74.4735 92.8346 75.9579 91.8921 77.7862 91.6479C80.514 91.2815 83.2711 91.2299 86.0127 91.0201C87.3182 90.9203 87.0585 91.0648 87.0585 89.9451C87.0688 73.3636 87.0717 56.7809 87.0671 40.1971C87.0671 40.0629 87.0671 39.9288 87.0671 39.7946C87.0301 38.926 86.7216 38.0909 86.185 37.4069C85.6484 36.7228 84.9108 36.2243 84.0761 35.9815C83.0682 35.6959 82.0379 35.849 81.018 35.7957C80.7187 35.7802 80.6086 35.8456 80.5674 36.1861C80.4223 37.4474 79.8163 38.6106 78.8658 39.4522C77.9153 40.2938 76.6873 40.7545 75.4178 40.7457C66.8593 40.7457 58.3008 40.7457 49.7423 40.7457C49.4906 40.749 49.2392 40.7306 48.9907 40.6907C46.6206 40.2814 44.9918 38.6268 44.6409 36.2601C44.5841 35.8765 44.4534 35.7819 44.0871 35.794C43.1635 35.8232 42.2364 35.7819 41.3128 35.8198C38.9547 35.9161 37.2571 37.7117 37.2571 40.0664C37.2548 50.3689 37.2537 60.6749 37.2537 70.9843ZM94.5661 71.0153C94.5661 59.0065 94.5317 46.9961 94.5867 34.9856C94.6039 31.415 91.95 28.8144 88.615 29.0002C87.1909 29.0793 85.7582 29.0139 84.3289 29.0139C83.1679 29.0139 82.007 29.0139 80.8477 29.0139C80.7136 29.0139 80.4521 28.9073 80.5123 29.2169C80.674 30.0339 80.5966 30.8594 80.6018 31.6799C80.6018 31.9826 80.7222 32.0479 80.9922 32.0393C81.5288 32.0238 82.0689 32.0393 82.6055 32.0393C84.5731 32.0084 86.3584 32.5553 87.8789 33.8074C89.8947 35.4603 90.8424 37.6343 90.8424 40.247C90.8424 56.8331 90.8424 73.4186 90.8424 90.0036C90.8579 91.121 90.6433 92.2297 90.2118 93.2606C89.7804 94.2915 89.1414 95.2226 88.3347 95.9959C84.4132 99.9002 80.5123 103.823 76.5925 107.729C75.8944 108.44 75.0601 109.003 74.1395 109.383C73.2189 109.764 72.231 109.955 71.2349 109.945C61.297 109.976 51.3573 109.96 41.4194 109.957C40.1878 109.979 38.9703 109.692 37.878 109.123C34.9816 107.559 33.4904 105.098 33.487 101.811C33.4732 81.3402 33.4704 60.8687 33.4784 40.3966C33.4784 38.7558 33.7949 37.2026 34.691 35.7974C35.9792 33.7816 37.7869 32.5501 40.1535 32.1597C41.4727 31.9413 42.804 32.0582 44.1284 32.0496C44.4861 32.0496 44.5807 31.9499 44.5721 31.599C44.5266 30.9286 44.545 30.2553 44.6271 29.5884C44.7183 29.0449 44.5618 29.0002 44.0957 29.0036C41.2027 29.0225 38.3097 29.0569 35.4185 29.0036C32.3604 28.9434 29.7426 31.3926 29.7426 34.6967C29.7564 58.901 29.7564 83.1066 29.7426 107.313C29.7426 110.593 32.1506 113.003 35.4082 113.003H88.8472C88.9659 113.003 89.0829 113.003 89.1998 113.003C90.0414 112.983 90.8669 112.767 91.6112 112.374C92.3555 111.981 92.9985 111.42 93.4894 110.736C94.3167 109.642 94.5695 108.388 94.5695 107.048C94.5649 95.0373 94.5638 83.0263 94.5661 71.0153ZM62.6144 37.0031H74.9689C75.1703 37.0089 75.3719 37.0026 75.5726 36.9842C75.9269 36.9521 76.2559 36.7874 76.4939 36.523C76.7318 36.2586 76.861 35.914 76.8557 35.5584C76.8637 33.7765 76.8637 31.9946 76.8557 30.2127C76.8731 29.865 76.753 29.5245 76.5212 29.2647C76.2894 29.005 75.9647 28.8469 75.6173 28.8247C75.0818 28.7828 74.5444 28.7685 74.0074 28.7817C72.5575 28.7817 71.8317 28.0593 71.8317 26.6215C71.8317 25.2455 71.842 23.8695 71.8317 22.4936C71.8197 21.5459 71.228 20.968 70.2837 20.9662C65.1892 20.9662 60.0959 20.9662 55.0036 20.9662C53.9407 20.9662 53.3628 21.5596 53.3611 22.6243C53.3611 24.0002 53.3611 25.3762 53.3611 26.7522C53.3611 27.9957 52.6146 28.7525 51.3659 28.7783C50.9463 28.7869 50.5266 28.7783 50.1052 28.7783C48.8376 28.7869 48.3354 29.2943 48.3336 30.5447C48.3336 32.0915 48.3336 33.6395 48.3336 35.1886C48.3336 36.4923 48.8496 37.0048 50.1723 37.0048L62.6144 37.0031ZM74.6283 104.057L84.0382 94.859C82.2856 94.9777 80.5983 95.0809 78.911 95.203C77.0965 95.3423 75.7119 96.4586 75.1512 98.1992C74.9104 98.9439 74.9414 99.7231 74.8795 100.488C74.7745 101.754 74.7006 103.025 74.6283 104.057Z" fill="#2C275A"/>
<path d="M101.867 19.0313C101.817 18.6529 102.024 18.3433 102.335 18.0802C104.955 15.8442 107.572 13.6083 110.187 11.3724C113.397 8.62043 116.608 5.8685 119.818 3.11657C120.711 2.35118 121.609 1.59268 122.493 0.818703C122.975 0.397314 123.487 0.371514 124.041 0.636388C124.502 0.846078 124.911 1.15537 125.238 1.54199C125.565 1.92862 125.802 2.38297 125.933 2.87233C126.022 3.12511 126.028 3.39971 125.951 3.65637C125.874 3.91302 125.717 4.13841 125.503 4.2999C119.49 9.43913 113.482 14.5835 107.478 19.7331C106.762 20.3454 106.038 20.937 105.338 21.5734C105.163 21.7431 104.943 21.8596 104.705 21.9092C104.466 21.9589 104.218 21.9396 103.99 21.8538C102.939 21.527 101.869 20.1493 101.867 19.0313Z" fill="#D6933B"/>
<path d="M96.3755 -6.43913e-05C96.9842 -0.00643683 97.5827 0.156741 98.104 0.471204C98.6338 0.791116 98.9004 1.23314 98.8247 1.89705C98.3758 5.81855 97.9527 9.74521 97.521 13.6684C97.4264 14.5284 97.0153 14.9636 96.1708 15.1029C95.0941 15.2749 94.0948 15.1424 93.2658 14.3581C93.1356 14.2387 93.0373 14.0888 92.9796 13.9218C92.9219 13.7548 92.9068 13.5761 92.9356 13.4018C93.3747 9.46084 93.8099 5.51985 94.241 1.57886C94.3666 0.448844 94.9806 -6.43913e-05 96.3755 -6.43913e-05Z" fill="#D6933B"/>
<path d="M123.284 26.7727C123.253 28.3207 122.806 28.6234 121.736 28.8367C117.935 29.5763 114.139 30.3451 110.343 31.1156C109.748 31.236 109.285 31.0829 108.929 30.5996C108.608 30.1771 108.388 29.6855 108.289 29.1637C108.19 28.6419 108.214 28.1042 108.358 27.5932C108.411 27.3454 108.538 27.1197 108.722 26.9463C108.907 26.7729 109.14 26.6601 109.39 26.6231C113.368 25.8342 117.346 25.0384 121.323 24.2358C121.953 24.1102 122.598 24.5402 122.935 25.3366C123.14 25.825 123.317 26.3376 123.284 26.7727Z" fill="#D6933B"/>
<rect x="46" y="53" width="32" height="5" rx="2.5" fill="#2C275A"/>
<rect x="46" y="66" width="32" height="5" rx="2.5" fill="#2C275A"/>
<rect x="46" y="79" width="32" height="5" rx="2.5" fill="#2C275A"/>
</g>
<defs>
<clipPath id="clip0_106_2896">
<rect width="126" height="117" fill="white"/>
</clipPath>
</defs>
</svg>
