<svg width="99" height="101" viewBox="0 0 99 101" fill="none" xmlns="http://www.w3.org/2000/svg">
<path d="M56.3191 88.0749C56.7563 86.9845 56.0294 86.2909 55.1795 85.5481C51.2368 82.1006 47.3192 78.625 43.4269 75.1213C42.7245 74.4821 42.3452 74.4189 41.6376 75.2214C38.6437 78.5928 34.5804 78.8544 31.2054 75.8447C30.2906 75.0282 29.8428 75.2108 29.0755 75.8956C24.3344 80.1287 19.5722 84.3377 14.789 88.5227C14.0515 89.1671 13.8145 89.6992 14.1569 90.758C15.4106 94.6211 13.0278 99.0619 9.33854 100.045C5.54393 101.057 1.04693 98.4526 0.207583 94.7546C-0.709025 90.7422 2.06187 86.4647 6.09705 85.7272C7.71955 85.4305 9.27357 85.815 10.6801 86.6052C11.4913 87.06 11.9988 86.9564 12.6749 86.3541C17.7203 81.846 22.7892 77.3677 27.8814 72.9193C28.5259 72.3521 28.856 71.7797 28.8683 70.828C28.9174 66.6137 31.8709 63.4705 35.7586 63.3195C39.771 63.165 42.8141 65.8727 43.3092 70.115C43.3918 70.8367 43.7026 71.295 44.2065 71.7393C48.4823 75.5199 52.7633 79.2899 57.0074 83.1144C57.6624 83.7044 58.0803 83.7588 58.716 83.1144C61.0654 80.7263 66.6178 80.6736 69.034 83.8167C69.6538 84.6227 70.0875 84.6017 70.825 83.9362C75.2852 79.9185 79.7734 75.9313 84.2897 71.9746C85.0026 71.3512 85.2379 70.9017 84.7585 69.9254C83.2888 66.9245 84.2317 63.3002 86.8481 61.1825C89.4645 59.0648 93.0712 59.049 95.8316 61.1632C97.1099 62.132 98.0222 63.5055 98.4196 65.0596C98.8169 66.6136 98.6759 68.2564 98.0195 69.72C96.6586 72.8315 93.3416 74.9984 90.1756 73.9202C87.5645 73.0299 86.3441 74.2134 84.7831 75.6164C80.5372 79.4327 76.2609 83.2145 71.9541 86.9617C71.5972 87.2498 71.3037 87.6087 71.0922 88.0158C70.8807 88.4228 70.7556 88.8692 70.7249 89.3269C70.2789 93.4411 67.0778 96.1049 63.1164 95.824C59.032 95.4991 56.2085 92.3524 56.3191 88.0749ZM95.5647 66.8929C95.56 65.7646 95.11 64.6839 94.3126 63.8857C93.5151 63.0876 92.4347 62.6367 91.3065 62.6312C89.0975 62.654 87.1677 64.4872 87.1273 66.5996C87.0817 68.9526 89.0097 71.0773 91.1958 71.0861C93.5207 71.0966 95.5489 69.1493 95.5647 66.8929V66.8929ZM63.6555 92.751C65.8961 92.7247 67.7187 90.8423 67.7328 88.5368C67.7451 86.1926 65.861 84.3611 63.45 84.3769C61.1532 84.3909 59.4113 86.1926 59.399 88.5613C59.3903 90.9635 61.2358 92.7791 63.6555 92.751ZM36.1098 74.7543C38.4628 74.7543 40.3153 72.8666 40.3241 70.4645C40.3241 68.4258 38.2995 66.3257 36.2854 66.2923C34.0027 66.2555 31.8955 68.2643 31.9061 70.4592C31.9219 72.8543 33.7832 74.756 36.1098 74.7543ZM7.17521 96.9846C9.60545 97.0391 11.4387 95.3815 11.5019 93.0706C11.5651 90.7598 9.64408 88.9301 7.16818 88.8985C4.82047 88.8651 3.15232 90.384 3.09262 92.6141C3.02413 95.0847 4.74672 96.9302 7.17521 96.9846Z" fill="#2C275A"/>
<path d="M54.2967 56.8067C54.2194 55.1052 54.3266 53.3686 54.0263 51.7145C53.5504 49.0981 52.0456 47.0243 50.1474 45.156C44.3527 39.4527 42.9304 30.9134 46.4968 23.858C50.2141 16.5076 57.9579 12.4636 65.9492 13.6998C73.8405 14.929 80.1725 21.1363 81.3841 29.0943C82.313 35.1769 80.6817 40.6046 76.2584 44.9277C73.1363 47.9761 71.6631 51.4932 71.8563 55.8146C71.9405 57.6935 71.8703 59.5812 71.8668 61.4635C71.8633 63.3459 70.9607 64.6506 69.2697 65.2775C68.311 65.6287 67.7719 66.2046 67.2451 67.0246C65.1819 70.2451 60.9658 70.2293 58.9359 66.9667C58.4808 66.1709 57.7538 65.5661 56.8885 65.2634C55.0044 64.5523 54.3231 62.942 54.2405 61.0597C54.1791 59.6549 54.2282 58.2343 54.2282 56.8226L54.2967 56.8067ZM66.6253 45.5546C66.6253 47.6126 66.6499 49.6723 66.6112 51.7303C66.5972 52.5117 66.7675 53.0929 67.656 52.8559C68.3584 52.668 69.5244 53.5986 69.7438 52.0709C70.2706 48.4712 72.2127 45.7249 74.7255 43.1893C80.9749 36.8837 80.8134 26.7132 74.4884 20.4901C71.4703 17.4836 67.3846 15.7942 63.1245 15.7912C58.8644 15.7882 54.7764 17.472 51.7541 20.4743C45.3888 26.7395 45.2044 36.817 51.4608 43.1507C53.9192 45.6424 55.9017 48.315 56.4232 51.855C56.6444 53.3493 57.77 52.7926 58.597 52.8769C59.7648 52.9981 59.5347 52.1219 59.5347 51.4476C59.5347 47.9761 59.475 44.5045 59.5611 41.0348C59.605 39.3385 59.6559 38.1234 57.3064 38.0233C55.2449 37.9373 53.8823 35.7177 54.2107 33.8318C54.3697 32.8936 54.8656 32.0457 55.6052 31.447C56.3449 30.8482 57.2775 30.5399 58.2283 30.5798C60.2722 30.6799 61.9158 32.2708 61.7718 34.4025C61.6577 36.1725 62.6867 36.0163 63.7139 35.8459C64.7411 35.6756 64.2249 34.6923 64.3337 34.09C64.7464 31.8072 66.4865 30.3463 68.6499 30.5974C70.757 30.8415 72.1618 32.6729 71.9107 34.8538C71.6807 36.8714 70.2952 38.1093 67.872 38.2094C66.843 38.2533 66.5761 38.5799 66.606 39.551C66.6744 41.551 66.6288 43.5528 66.6253 45.5546ZM64.3021 45.7513C64.3021 43.6336 64.2635 41.5141 64.3197 39.3982C64.3478 38.4202 63.9211 38.2252 63.0537 38.2235C62.1862 38.2217 61.7929 38.3991 61.8034 39.3824C61.8502 43.4995 61.8502 47.6167 61.8034 51.7338C61.7911 52.7048 62.1546 52.9156 63.0326 52.9015C63.8754 52.8892 64.346 52.7523 64.3144 51.7496C64.2547 49.7513 64.3039 47.7513 64.3021 45.7513V45.7513ZM57.0272 62.3029C58.5075 63.8095 67.9879 63.7393 69.0327 62.3029H57.0272ZM63.1344 55.2633C61.252 55.2633 59.3697 55.2633 57.4873 55.2633C57.0957 55.2633 56.6093 55.1684 56.6427 55.8322C56.6655 56.3239 56.9939 56.3678 57.3679 56.3678H68.8395C69.2048 56.3678 69.5718 56.3221 69.6121 55.8585C69.6648 55.2317 69.1942 55.258 68.7816 55.2562C66.8992 55.258 65.0168 55.2615 63.1344 55.2633V55.2633ZM63.1801 59.8621C64.936 59.8621 66.7078 59.8621 68.4708 59.8621C68.9256 59.8621 69.5349 59.9604 69.563 59.302C69.5946 58.5627 68.9291 58.7541 68.5094 58.7523C64.9238 58.7348 61.3381 58.7348 57.7524 58.7523C57.3433 58.7523 56.6989 58.5258 56.6725 59.2668C56.6462 60.0079 57.2678 59.8551 57.7085 59.8586C59.5347 59.8691 61.3574 59.8621 63.1801 59.8621V59.8621ZM67.6068 35.8933C68.8027 35.9197 69.6596 35.5421 69.6754 34.3779C69.6876 34.1841 69.6583 33.9898 69.5893 33.8082C69.5203 33.6266 69.4133 33.4619 69.2755 33.325C69.1376 33.1882 68.9721 33.0824 68.79 33.0147C68.6079 32.9471 68.4134 32.9191 68.2197 32.9328C67.066 32.9644 66.6674 33.7318 66.613 34.8222C66.5691 35.7037 66.9238 35.9952 67.6068 35.8933V35.8933ZM59.5295 34.8942C59.5154 33.5597 58.9465 32.8397 57.9667 32.9275C57.0887 33.0083 56.5812 33.5087 56.6216 34.4394C56.6725 35.6018 57.4416 35.8442 58.4232 35.8828C59.2064 35.9109 59.7191 35.7529 59.5347 34.8942H59.5295ZM61.1572 65.72C62.4531 67.5321 64.0247 67.4935 64.9431 65.72H61.1572Z" fill="#2C275A"/>
<path d="M64.2544 4.13148V6.77946C64.2544 7.4678 63.9489 7.91556 63.236 7.97527C62.4546 8.04024 61.919 7.58193 61.8874 6.87955C61.8031 5.05863 61.7926 3.23068 61.8786 1.41151C61.8814 1.24579 61.9194 1.08256 61.9902 0.9327C62.0611 0.782843 62.163 0.649805 62.2893 0.54246C62.4156 0.435115 62.5633 0.355929 62.7226 0.310183C62.8819 0.264436 63.0492 0.25318 63.2132 0.277166C64.0086 0.352672 64.2667 0.935649 64.2667 1.6591C64.2667 2.48264 64.2667 3.30619 64.2667 4.13148H64.2544Z" fill="#D6933B"/>
<path d="M49.2814 11.2045C49.3165 12.035 49.1058 12.4336 48.6335 12.6479C48.1611 12.8621 47.6379 12.8235 47.3446 12.4354C46.147 10.855 44.9829 9.25712 43.8713 7.62058C43.5974 7.21846 43.7853 6.69694 44.1786 6.35804C44.572 6.01915 45.1374 5.88042 45.4763 6.19298C47.1093 7.69959 48.2138 9.6048 49.2814 11.2045Z" fill="#D6933B"/>
<path d="M82.0646 56.8487C82.0646 57.6038 81.7906 57.9638 81.371 58.2254C80.9513 58.487 80.5229 58.473 80.2349 58.1499C78.8158 56.603 77.5888 54.8902 76.5807 53.0489C76.3419 52.6011 76.665 52.1287 77.0531 51.8355C77.4043 51.5756 77.896 51.4703 78.2068 51.7547C79.8556 53.2525 80.946 55.1841 82.0646 56.8487Z" fill="#D6933B"/>
<path d="M93.3903 41.8547C93.1568 42.7906 92.6265 43.2594 91.7169 42.9978C90.0329 42.5009 88.3578 41.9671 86.7054 41.3771C86.0522 41.1453 85.6413 40.622 85.9258 39.8511C86.1611 39.2155 86.6896 38.8713 87.313 39.0557C89.1058 39.5825 90.8776 40.1883 92.6476 40.7923C93.1375 40.9609 93.3043 41.4174 93.3903 41.8547Z" fill="#D6933B"/>
<path d="M39.9377 39.8862C39.8955 40.5184 39.4934 40.9082 38.8929 41.1066C37.3371 41.6211 35.7743 42.1128 34.215 42.622C33.4319 42.8766 32.7874 42.7186 32.4977 41.9073C32.208 41.0961 32.6733 40.5763 33.4284 40.327C34.9824 39.8002 36.5259 39.2541 38.0957 38.7923C39.0492 38.5025 39.8973 39.0504 39.9377 39.8862Z" fill="#D6933B"/>
<path d="M48.9771 52.5273C48.9991 52.9682 48.8507 53.4007 48.5627 53.7354C47.6286 55.0049 46.7102 56.2833 45.7725 57.5493C45.3283 58.1498 44.7084 58.3465 44.0868 57.9286C43.4002 57.4703 43.3019 56.7977 43.8006 56.1041C44.7886 54.731 45.7836 53.3619 46.7857 51.997C47.172 51.4702 47.6883 51.256 48.3187 51.5018C48.5292 51.5716 48.7094 51.7115 48.8292 51.8981C48.9491 52.0847 49.0013 52.3068 48.9771 52.5273Z" fill="#D6933B"/>
<path d="M87.5205 25.742C86.6777 25.6858 86.1913 25.4821 86.0244 24.9027C85.8489 24.2758 86.0051 23.6858 86.6619 23.4558C88.4178 22.8429 90.2019 22.2547 91.9929 21.7244C92.6128 21.5488 93.1606 21.8245 93.3766 22.4865C93.5522 23.0466 93.424 23.6419 92.8867 23.8473C91.0377 24.5568 89.1536 25.1731 87.5205 25.742Z" fill="#D6933B"/>
<path d="M40.0223 24.2933C39.8923 25.1713 39.269 25.5471 38.4086 25.3065C36.7193 24.8342 35.0477 24.2846 33.3918 23.7051C32.7122 23.4663 32.3856 22.9009 32.6034 22.1564C32.8036 21.475 33.3584 21.1958 33.9713 21.3767C35.7641 21.9035 37.5341 22.5075 39.3041 23.1081C39.7887 23.2749 40.0117 23.6858 40.0223 24.2933Z" fill="#D6933B"/>
<path d="M82.3402 7.54841C82.2805 8.55984 78.9618 12.4774 77.9784 12.8057C77.5816 12.9374 77.3165 12.9339 77.0443 12.646C76.8509 12.4577 76.7301 12.2073 76.7031 11.9388C76.6761 11.6703 76.7447 11.4009 76.8968 11.178C77.9697 9.63976 79.1058 8.14368 80.2647 6.66692C80.4212 6.44484 80.6575 6.2918 80.9242 6.23977C81.1908 6.18775 81.4673 6.24076 81.6958 6.38773C81.9071 6.4944 82.0815 6.66208 82.1964 6.86903C82.3113 7.07597 82.3614 7.31266 82.3402 7.54841V7.54841Z" fill="#D6933B"/>
</svg>
