<svg id="Layer_1" data-name="Layer 1" xmlns="http://www.w3.org/2000/svg" viewBox="0 0 1024 1024"><defs><style>.cls-1{fill:#fff;}</style></defs><path class="cls-1" d="M759.41,411.51v-48H743.28c-40.86,0-81.71.09-122.56,0-19-.06-30.37-10.11-30.26-26.24s11.49-25.83,30.63-25.87q80.19-.15,160.38,0c21,0,30.29,9.47,30.41,30.64q.24,45.54,0,91.08c-.12,21.16-9.41,30.51-30.47,30.58-40.34.14-80.69,0-121,0h-18v17.55q0,161.67,0,323.32c0,28.06-7.7,35.65-36.07,35.66q-93,0-186.1,0c-23.93,0-32.6-8.78-32.61-33q-.08-161.65,0-323.31V463.69H360.15c-38.84,0-77.67.07-116.51,0-20.28-.05-31.78-9.83-31.52-26.49.24-16,11.56-25.6,30.85-25.64q82.47-.14,164.92,0c22.83,0,31.7,9.09,31.71,32.41q.07,162.42,0,324.84v18.5H590.4V770.56q0-161.65,0-323.31c0-28.05,7.76-35.73,36-35.74Z"/><path class="cls-1" d="M264.6,236V311.3h16.53q112.74,0,225.48,0c24.15,0,32.87,8.67,32.88,32.78q.06,182.17,0,364.35c0,22.8-15.62,36.8-33.91,30.33-14.62-5.17-18.25-16.84-18.21-31.42.27-97.66.14-195.33.14-293V363.49H471q-112.74,0-225.48,0c-25,0-33.4-8.53-33.44-33.74-.05-38.46-.12-76.92,0-115.38.09-21.12,9.45-30.53,30.53-30.54q269.36-.1,538.72,0c19.1,0,30.46,9.92,30.52,26,0,16.51-11.51,26.15-31.87,26.15q-248.18.06-496.35,0Z"/></svg>