<svg width="100" height="106" viewBox="0 0 100 106" fill="none" xmlns="http://www.w3.org/2000/svg">
<g clip-path="url(#clip0_106_2947)">
<path d="M0.060499 49.7156C0.060499 35.6962 0.165241 21.6768 -0.000735029 7.65748C-0.0523005 3.07943 4.0117 0 7.69058 0C35.8475 0.0709025 64.0017 0.0768111 92.1532 0.0177256C94.1869 0.0177256 95.9836 0.622009 97.3404 1.96432C98.9019 3.51612 100.004 5.4031 99.9993 7.80411C99.9617 25.3042 99.9509 42.8058 99.967 60.3091C99.967 70.6383 99.9719 80.9669 99.9815 91.2951C99.9815 96.4694 96.7974 99.6455 91.6183 99.6455C91.4541 99.6568 91.2893 99.6568 91.1252 99.6455C89.9214 99.4843 89.2978 99.7405 89.0964 101.184C88.7999 103.357 86.5616 105.036 84.3379 105.07C81.7499 105.108 79.1625 105.108 76.5756 105.07C75.3153 105.074 74.0969 104.617 73.1492 103.787C72.2015 102.956 71.5897 101.808 71.4288 100.558C71.3369 99.8227 71.1822 99.6181 70.4377 99.6181C56.6665 99.6417 42.9001 99.6417 29.1386 99.6181C28.5214 99.6181 28.2604 99.689 28.1718 100.424C27.8156 103.208 25.6853 105.042 22.8815 105.065C20.46 105.093 18.037 105.093 15.6123 105.065C12.7859 105.039 10.7152 103.26 10.3124 100.438C10.2108 99.7228 9.97397 99.5907 9.34551 99.6165C7.48754 99.6938 5.63924 99.6616 3.95853 98.7012C1.49144 97.2992 0.060499 95.2946 0.0637218 92.3586C0.0733904 78.1513 0.0723161 63.9369 0.060499 49.7156ZM94.6042 49.8767H94.6348V8.56793C94.6348 5.93164 93.9758 5.23873 91.2927 5.23873H14.8534C12.5103 5.23873 10.1706 5.22101 7.82111 5.23873C6.09527 5.25646 5.24283 6.07022 5.20738 7.79445C5.16387 10.0875 5.20738 12.3806 5.20738 14.6736V91.1629C5.20738 93.7654 5.78749 94.3729 8.35932 94.3761C15.4657 94.3761 22.571 94.3702 29.6752 94.3584L90.3275 94.3213C90.9866 94.3213 91.6456 94.3471 92.2918 94.3213C93.9339 94.2311 94.5962 93.5559 94.5962 91.9477C94.6015 77.9176 94.6042 63.8955 94.6042 49.8816V49.8767ZM80.377 99.6503V99.6326C78.7333 99.6326 77.0816 99.61 75.4476 99.6455C74.9803 99.6455 74.2632 99.3973 74.0828 99.8276C73.8282 100.443 74.2197 101.094 74.6677 101.6C74.8912 101.872 75.1691 102.094 75.4836 102.252C75.798 102.41 76.142 102.5 76.4935 102.517C79.0814 102.561 81.6709 102.593 84.2557 102.496C85.4497 102.451 86.3086 101.721 86.6212 100.495C86.7679 99.913 86.6696 99.602 85.9235 99.6149C84.0784 99.6874 82.2269 99.6503 80.377 99.6503ZM19.2848 99.6326V99.6503C17.6862 99.6503 16.0829 99.6149 14.4859 99.6713C13.9719 99.689 13.221 99.2781 12.9648 99.942C12.6957 100.649 13.2033 101.26 13.7141 101.768C13.9776 102.026 14.2901 102.229 14.6333 102.365C14.9765 102.5 15.3433 102.566 15.7122 102.557C18.0504 102.557 20.3854 102.588 22.7268 102.557C23.9128 102.538 24.8538 102.019 25.3647 100.877C25.7192 100.071 25.6708 99.5875 24.5751 99.6261C22.8106 99.6761 21.0428 99.6261 19.2815 99.6261L19.2848 99.6326Z" fill="#2C275A"/>
<path d="M76.5425 90.0785H44.5477C44.5463 90.053 44.5377 90.0284 44.5228 90.0076C44.508 89.9868 44.4876 89.9706 44.464 89.9609C44.3495 89.7853 44.2335 89.6096 44.1159 89.4324L44.1449 89.4469L43.8709 89.189H43.8983L43.6212 88.9506L43.6502 88.9634L43.2747 88.704V88.7185L42.8864 88.3334L42.9186 88.3527L42.635 87.9644L42.6721 87.9837C42.5754 87.8822 42.4819 87.7823 42.3852 87.6824C42.394 87.6535 42.3959 87.623 42.3905 87.5933C42.3852 87.5636 42.3729 87.5356 42.3546 87.5116H78.7502L78.5294 87.8451L78.4939 87.8935L78.5391 87.8499C78.4666 87.5567 78.813 87.7049 78.8614 87.5422C80.708 87.5422 82.5563 87.5244 84.4046 87.5422C86.6026 87.5422 87.7161 86.5753 87.721 84.5272C87.7403 75.4732 87.75 66.4191 87.75 57.3651C87.75 43.5197 87.7446 29.6755 87.7338 15.8323C87.7338 13.3636 86.8266 12.3839 84.3499 12.3822C66.2815 12.3543 48.2094 12.3409 30.1336 12.342C25.2853 12.342 20.4382 12.3511 15.5921 12.3694C13.3732 12.3694 12.3403 13.4023 12.3306 15.5922C12.3306 16.2045 12.3644 16.8201 12.3644 17.434V83.9326C12.3644 86.3642 12.777 86.9169 15.0732 87.597L15.012 87.6147L15.0426 87.5921L20.9936 87.5389C20.9807 87.5986 21.0129 87.6469 21.0903 87.6824L21.4529 88.2383L21.4174 88.2157L21.6817 88.4687L21.925 88.7105L22.1715 88.9554L22.4245 89.2035L22.692 89.4598L22.655 89.4404L22.9386 89.7079L22.9031 89.687L23.1722 89.9722C23.1661 89.9929 23.1665 90.0151 23.1734 90.0355C23.1804 90.056 23.1934 90.0739 23.2109 90.0866C20.4973 90.0866 17.7853 90.1317 15.0797 90.0866C11.96 90.0431 9.74426 87.7903 9.74426 84.6996C9.74426 66.3036 9.75286 47.9082 9.77005 29.5133C9.77005 24.8015 9.74587 20.0881 9.74426 15.3763C9.74426 12.0181 11.9003 9.81847 15.2376 9.81847C33.5616 9.81847 51.8856 9.82653 70.2096 9.84264C75.0584 9.84264 79.9104 9.92482 84.7527 9.7798C88.1818 9.67828 90.4072 12.5966 90.3927 15.3956C90.3358 38.426 90.3239 61.4559 90.3572 84.4853C90.3572 87.8387 88.1915 90.0592 84.8639 90.0882C82.11 90.1124 79.3593 90.0882 76.6054 90.0753C76.5393 89.8562 76.5586 89.6628 76.8116 89.5661C76.7042 89.3061 76.7842 89.2234 77.0517 89.318C76.9631 89.0666 77.0517 88.9796 77.2983 89.0714C77.2129 88.82 77.2983 88.733 77.5464 88.8249C77.4981 88.6637 77.5883 88.6057 77.7172 88.6057C77.7543 88.6057 77.8317 88.7282 77.8172 88.7588C77.7591 88.8748 77.656 88.9199 77.5432 88.8168C77.6157 89.0537 77.5303 89.1391 77.2983 89.0617C77.3724 89.3018 77.2822 89.376 77.0501 89.3083C77.1291 89.5452 77.0501 89.6306 76.8052 89.5613C76.9873 89.8819 76.6779 89.9319 76.5425 90.0785Z" fill="#2C275A"/>
<path d="M44.4526 90.0785H23.3253C23.3068 90.051 23.283 90.0275 23.2553 90.0092C23.2277 89.991 23.1967 89.9784 23.1642 89.9721C23.0739 89.8754 22.9853 89.7804 22.8951 89.6885L22.9305 89.7078L22.6469 89.4403L22.684 89.4597L22.4165 89.2051L22.1635 88.9569L21.9153 88.7168L21.6704 88.4751L21.4077 88.2221L21.4415 88.2447L21.079 87.6887C21.1089 87.6407 21.1187 87.5828 21.1064 87.5276L36.2682 87.5937L36.2344 87.6807L36.2489 87.5937L42.2031 87.5566L42.3642 87.6968L42.6495 87.9997L42.6124 87.9804L42.896 88.3688L42.8638 88.3494L43.2505 88.7345V88.7217L43.626 88.9795L43.597 88.9666C43.6872 89.0552 43.7791 89.1406 43.8725 89.226H43.8435L44.1175 89.4839L44.0901 89.471L44.4365 89.9947C44.4394 90.023 44.4448 90.0511 44.4526 90.0785Z" fill="#2C275A"/>
<path d="M44.4527 90.0784C44.4516 90.0378 44.4554 89.9973 44.464 89.9576C44.4874 89.9684 44.5076 89.9854 44.5223 90.0066C44.5371 90.0278 44.5458 90.0527 44.5478 90.0784H44.4527Z" fill="#2C275A"/>
<path d="M76.5425 90.0784C76.6747 89.9334 76.9824 89.8835 76.8084 89.5757C76.5554 89.6724 76.5361 89.8641 76.6022 90.0849L76.557 90.1413L76.5425 90.0784Z" fill="#D6933B"/>
<path d="M23.1675 89.9705C23.2 89.9767 23.231 89.9893 23.2586 90.0075C23.2863 90.0258 23.3101 90.0493 23.3286 90.0768L23.2786 90.1364L23.2045 90.0784C23.1886 90.0659 23.1766 90.0491 23.17 90.0299C23.1634 90.0108 23.1625 89.9901 23.1675 89.9705V89.9705Z" fill="#D6933B"/>
<path d="M20.9872 87.5324L21.1097 87.5002C21.1167 87.5287 21.1181 87.5583 21.1137 87.5874C21.1093 87.6164 21.0991 87.6443 21.0839 87.6694C21.0567 87.6576 21.0334 87.6386 21.0163 87.6145C20.9993 87.5903 20.9892 87.5619 20.9872 87.5324V87.5324Z" fill="#D6933B"/>
<path d="M42.2192 87.5356L42.3562 87.5066C42.374 87.5309 42.3857 87.559 42.3905 87.5887C42.3952 87.6184 42.3929 87.6488 42.3836 87.6774L42.2192 87.5356Z" fill="#2C275A"/>
<path d="M78.7469 87.5131L78.8259 87.4647C78.8259 87.4647 78.8662 87.5437 78.8646 87.5437C78.8114 87.7048 78.4633 87.5598 78.5423 87.8515L78.7469 87.5131Z" fill="#D6933B"/>
<path d="M77.5497 88.8296C77.6689 88.9392 77.7689 88.8893 77.822 88.7716C77.8381 88.741 77.7608 88.6185 77.7237 88.6185C77.5932 88.6185 77.503 88.6749 77.5513 88.8377L77.5497 88.8296Z" fill="#D6933B"/>
<path d="M42.8832 88.3285L42.917 88.3478L42.8832 88.3285Z" fill="#D6933B"/>
<path d="M15.0765 87.5904L15.0442 87.5856L15.0136 87.6081L15.0765 87.5904Z" fill="#D6933B"/>
<path d="M42.6334 87.9595L42.6704 87.9788L42.6334 87.9595Z" fill="#D6933B"/>
<path d="M78.5358 87.8515L78.4923 87.895L78.5278 87.8467L78.5358 87.8515Z" fill="#D6933B"/>
<path d="M21.4544 88.2318L21.4206 88.2092L21.4544 88.2318Z" fill="#D6933B"/>
<path d="M43.6212 88.9504L43.6502 88.9633L43.6212 88.9504Z" fill="#D6933B"/>
<path d="M77.3031 89.0762C77.5368 89.1455 77.6254 89.0762 77.5497 88.8296C77.2902 88.7378 77.2161 88.8297 77.3015 89.0762H77.3031Z" fill="#D6933B"/>
<path d="M77.055 89.3212C77.2886 89.3905 77.3773 89.3212 77.3031 89.0763C77.0469 88.9828 76.9696 89.0763 77.0582 89.3196L77.055 89.3212Z" fill="#D6933B"/>
<path d="M22.6872 89.4581L22.6501 89.4387L22.6872 89.4581Z" fill="#D6933B"/>
<path d="M44.1159 89.4339L44.1449 89.4468L44.1159 89.4339Z" fill="#D6933B"/>
<path d="M76.8052 89.5741C77.0437 89.6418 77.1275 89.5596 77.0485 89.3211C76.7842 89.2309 76.7037 89.3211 76.8084 89.5725L76.8052 89.5741Z" fill="#D6933B"/>
<path d="M22.9338 89.7063L22.8983 89.687L22.9338 89.7063Z" fill="#D6933B"/>
<path d="M36.2844 87.5727H36.2651L36.249 87.6597L36.2844 87.5727Z" fill="#D6933B"/>
<path d="M35.1774 50.6889C35.3193 50.6692 35.4638 50.6817 35.6002 50.7255C35.7366 50.7693 35.8614 50.8432 35.9653 50.9419C36.7082 51.7605 37.2948 51.3802 37.891 50.7517C38.3648 50.2441 38.8578 49.7526 39.3719 49.2805C39.8859 48.8083 40.5756 48.5135 40.7932 47.9769C41.0236 47.4016 40.2711 46.8908 40.0245 46.3106C39.7361 45.6371 39.6442 45.0779 40.3742 44.617C41.1799 44.1111 42.0436 44.2948 42.374 44.9812C43.1072 46.5201 44.0643 46.3638 45.3551 45.8611C46.1608 45.5388 47.002 45.1536 47.9447 45.2745C48.4764 45.3438 48.6295 44.9973 48.6166 44.4946C48.6037 43.9918 48.5441 43.5358 48.7616 43.0443C49.0936 42.303 49.6125 41.9453 50.4037 42.0984C51.1272 42.2354 51.3544 42.7977 51.4076 43.4568C51.4327 43.617 51.4327 43.7801 51.4076 43.9402C51.1465 45.0392 51.796 45.3373 52.6871 45.5001C53.4897 45.608 54.2806 45.7903 55.0494 46.0448C56.0066 46.4186 56.6689 46.1866 57.0266 45.2938C57.4665 44.219 58.3319 43.9628 59.1779 44.4156C60.1173 44.9232 59.9836 45.8917 59.3841 46.6523C58.7605 47.4451 58.8862 47.9414 59.7064 48.4941C60.557 49.0789 61.2932 49.8146 61.8786 50.6647C62.362 51.3608 62.8455 51.6058 63.5432 50.937C63.7144 50.7669 63.9226 50.6387 64.1515 50.5623C64.3805 50.486 64.624 50.4637 64.863 50.4971C65.3786 50.5986 66.0184 50.7034 66.165 51.4205C66.3116 52.1375 66.1086 52.7386 65.4769 52.9594C64.0121 53.4928 64.0266 54.3162 64.618 55.5538C65.0289 56.4336 65.1965 57.4311 65.3383 58.3979C65.4495 59.1295 65.7525 59.3906 66.4551 59.2906C66.6549 59.2616 66.866 59.3035 67.0706 59.2906C68.0375 59.1907 68.8786 59.3873 68.8512 60.5508C68.8238 61.7142 67.9263 61.9189 66.9933 61.7803C65.7976 61.6047 65.2803 62.0639 65.2207 63.2451C65.1756 64.2345 64.8146 65.1675 64.4488 66.078C64.2007 66.6935 64.0863 67.0915 64.9194 67.3155C65.3206 67.4235 65.6929 67.7828 65.9829 68.1132C66.1966 68.3418 66.3154 68.643 66.3154 68.956C66.3154 69.2689 66.1966 69.5701 65.9829 69.7987C65.5929 70.2934 64.9677 70.5368 64.4456 70.121C63.063 69.0236 62.2315 69.6827 61.4725 70.8848C61.2657 71.1929 61.0047 71.461 60.7023 71.676C59.5936 72.4995 58.6767 73.2875 59.9175 74.7732C60.2946 75.226 60.1077 76.0075 59.4663 76.3733C58.767 76.7697 57.9274 76.6843 57.6245 75.993C56.8832 74.3542 55.8664 74.6862 54.624 75.2566C54.0327 75.5495 53.3839 75.708 52.7241 75.7207C51.6574 75.6998 51.5526 76.238 51.6251 77.0711C51.7122 78.0073 51.5365 78.8436 50.3811 78.9468C49.4626 79.0322 48.8293 78.2877 48.8696 77.0308C48.8954 76.1171 48.5634 75.8029 47.6804 75.7691C46.5289 75.6943 45.4031 75.396 44.3657 74.8908C43.6857 74.5847 43.3118 74.7458 43.0089 75.3743C42.7881 75.8577 42.5254 76.3282 42.0066 76.5796C41.4442 76.8519 40.9527 76.6731 40.516 76.333C40.0793 75.993 39.9133 75.5612 40.2211 75.0439C41.1009 73.5936 40.6868 72.5043 39.2639 71.6889C39.0206 71.5328 38.8125 71.3275 38.6532 71.0863C37.862 69.9873 37.074 69.2363 35.6447 70.3224C35.0178 70.8059 34.2814 70.3531 33.856 69.7198C33.7794 69.5975 33.7276 69.4613 33.7037 69.3189C33.6797 69.1766 33.684 69.031 33.7163 68.8903C33.7486 68.7497 33.8083 68.6167 33.892 68.4992C33.9757 68.3816 34.0817 68.2816 34.2041 68.205L34.2443 68.1809C36.5906 67.1898 35.0678 65.6735 34.8664 64.3408C34.8486 64.2264 34.7278 64.1201 34.7213 64.0089C34.623 62.5441 34.0429 61.7336 32.3783 61.964C32.1142 62.0018 31.846 61.9332 31.6324 61.7734C31.4188 61.6136 31.2773 61.3756 31.239 61.1116C31.227 61.019 31.227 60.9253 31.239 60.8328C31.3341 60.1608 31.4598 59.31 32.5717 59.5146C33.0218 59.5581 33.4751 59.5581 33.9253 59.5146C34.2331 59.5146 34.4941 59.426 34.4861 59.0312C34.4522 57.5648 34.9244 56.2048 35.4529 54.8818C35.7752 54.0906 35.4771 53.728 34.8196 53.4009C34.4564 53.2167 34.122 52.9806 33.827 52.6999C33.4112 52.3084 33.4757 51.7524 33.6658 51.3238C33.9221 50.8404 34.4844 50.6969 35.1774 50.6889ZM49.9106 70.6157C55.5506 70.6641 60.0303 65.9829 60.0335 60.8473C60.0335 54.7658 55.6601 50.373 49.8413 50.4375C44.2658 50.5003 39.8505 55.1364 39.7909 60.7667C39.7457 65.5881 44.7444 71.1604 49.9106 70.6157Z" fill="#D6933B"/>
<path d="M49.9283 20.876H62.4974C64.9452 20.876 66.0135 21.9475 66.0135 24.3921C66.0135 25.2123 65.9942 26.0325 65.9942 26.8495C65.9942 29.1522 64.8662 30.2883 62.5103 30.2915H37.0031C34.7004 30.2915 33.6433 29.2425 33.574 26.9268C33.5466 25.9439 33.5176 24.948 33.5547 23.9795C33.6272 21.9749 34.7326 20.8856 36.7437 20.876C41.1412 20.8614 45.5356 20.876 49.9283 20.876ZM49.793 27.6439H60.5041C63.4546 27.6439 63.4256 27.6439 63.4804 24.6741C63.4981 23.7153 63.1952 23.3849 62.2138 23.3849C54.4983 23.422 46.7812 23.4107 39.0657 23.4156C36.1152 23.4156 36.1571 23.4156 36.1152 26.4064C36.1023 27.3732 36.3811 27.6697 37.356 27.6584C41.5006 27.6246 45.6452 27.652 49.793 27.652V27.6439Z" fill="#2C275A"/>
<path d="M55.4071 60.6152C55.4149 62.0239 54.8633 63.3781 53.8736 64.3805C52.8838 65.383 51.5368 65.9517 50.1281 65.9619H49.9944C47.002 65.9619 44.3931 63.432 44.4301 60.5717C44.4672 57.7114 46.9649 55.0026 49.606 54.9205C50.3482 54.9007 51.0869 55.0274 51.7801 55.2932C52.4733 55.559 53.1074 55.9587 53.6461 56.4696C54.1848 56.9804 54.6176 57.5924 54.9197 58.2706C55.2219 58.9487 55.3875 59.6797 55.4071 60.4219C55.4071 60.4863 55.4071 60.5508 55.4071 60.6152ZM49.7752 63.2918C50.5099 63.3144 51.2234 63.0442 51.7589 62.5408C52.2944 62.0373 52.6079 61.3418 52.6307 60.6072C52.6307 60.5685 52.6307 60.5298 52.6307 60.4895C52.6307 58.9716 51.4914 57.813 50.0202 57.8178C49.2952 57.8176 48.5989 58.1007 48.0799 58.6068C47.5608 59.1129 47.2602 59.8019 47.2421 60.5266C47.2147 61.935 48.4571 63.2854 49.7752 63.2918V63.2918Z" fill="#D6933B"/>
</g>
<defs>
<clipPath id="clip0_106_2947">
<rect width="100" height="105.099" fill="white"/>
</clipPath>
</defs>
</svg>
